<?xml version="1.0" standalone="no"?>
<!DOCTYPE svg PUBLIC "-//W3C//DTD SVG 20010904//EN"
 "http://www.w3.org/TR/2001/REC-SVG-20010904/DTD/svg10.dtd">
<svg version="1.0" xmlns="http://www.w3.org/2000/svg"
 width="528.000000pt" height="462.000000pt" viewBox="0 0 528.000000 462.000000"
 preserveAspectRatio="xMidYMid meet">

<g transform="translate(0.000000,462.000000) scale(0.100000,-0.100000)"
fill="#000000" stroke="none">
<path d="M873 3943 c-40 -2 -73 -7 -73 -11 0 -4 19 -20 43 -37 23 -16 204
-145 403 -285 199 -140 376 -266 394 -280 l32 -26 -332 -234 c-478 -338 -538
-385 -516 -407 4 -4 478 -9 1052 -11 l1044 -3 0 -794 0 -795 -425 0 -425 0 0
-260 0 -260 1158 2 1157 3 3 258 2 257 -395 0 -395 0 -2 797 -3 798 -275 8
c-151 4 -299 10 -328 13 l-53 6 3 634 3 634 -1000 -2 c-550 -1 -1033 -4 -1072
-5z"/>
</g>
</svg>
